HIERARCHY
ROOT SpineBase
{
  OFFSET 0.000000 0.000000 0.000000
  CHANNELS 6 Xposition Yposition Zposition Zrotation Xrotation Yrotation
  JOINT SpineMid
  {
    OFFSET 0.000000 25.699208 0.000000
    CHANNELS 3 Zrotation Xrotation Yrotation
    JOINT SpineShoulder
    {
      OFFSET 0.106846 19.205990 -0.698533
      CHANNELS 3 Zrotation Xrotation Yrotation
      JOINT Neck
      {
        OFFSET 0.102814 6.438806 -0.563750
        CHANNELS 3 Zrotation Xrotation Yrotation
        JOINT Head
        {
          OFFSET 3.824864 14.174623 -1.564745
          CHANNELS 3 Zrotation Xrotation Yrotation
          End Site
          {
            OFFSET 0 0 0
          }
        }
      }
      JOINT ShoulderLeft
      {
        OFFSET -11.436533 0.629753 -8.941566
        CHANNELS 3 Zrotation Xrotation Yrotation
        JOINT ElbowLeft
        {
          OFFSET -3.888637 -18.654765 -8.483415
          CHANNELS 3 Zrotation Xrotation Yrotation
          JOINT WristLeft
          {
            OFFSET 14.064467 -14.233629 -17.184567
            CHANNELS 3 Zrotation Xrotation Yrotation
            JOINT HandLeft
            {
              OFFSET -0.085437 -2.244892 -3.049603
              CHANNELS 3 Zrotation Xrotation Yrotation
              JOINT HandTipLeft
              {
                OFFSET 1.184714 -2.166779 -4.984238
                CHANNELS 3 Zrotation Xrotation Yrotation
                End Site
                {
                  OFFSET 0 0 0
                }
              }
              JOINT ThumbLeft
              {
                OFFSET 5.028737 2.065618 -0.181486
                CHANNELS 3 Zrotation Xrotation Yrotation
                End Site
                {
                  OFFSET 0 0 0
                }
              }
            }
          }
        }
      }
      JOINT ShoulderRight
      {
        OFFSET 13.460174 -1.880026 7.871755
        CHANNELS 3 Zrotation Xrotation Yrotation
        JOINT ElbowRight
        {
          OFFSET 5.154062 -20.569562 0.065836
          CHANNELS 3 Zrotation Xrotation Yrotation
          JOINT WristRight
          {
            OFFSET 8.292269 -14.203886 -17.281006
            CHANNELS 3 Zrotation Xrotation Yrotation
            JOINT HandRight
            {
              OFFSET -0.194522 -1.985084 -4.399146
              CHANNELS 3 Zrotation Xrotation Yrotation
              JOINT HandTipRight
              {
                OFFSET 1.957020 -1.455019 -4.173516
                CHANNELS 3 Zrotation Xrotation Yrotation
                End Site
                {
                  OFFSET 0 0 0
                }
              }
              JOINT ThumbRight
              {
                OFFSET 3.654940 1.599033 -2.307657
                CHANNELS 3 Zrotation Xrotation Yrotation
                End Site
                {
                  OFFSET 0 0 0
                }
              }
            }
          }
        }
      }
    }
  }
  JOINT HipLeft
  {
    OFFSET -5.178636 1.732027 -6.570774
    CHANNELS 3 Zrotation Xrotation Yrotation
    JOINT KneeLeft
    {
      OFFSET 9.715532 4.410332 -33.439699
      CHANNELS 3 Zrotation Xrotation Yrotation
      JOINT AnkleLeft
      {
        OFFSET 3.413023 -33.480366 -0.530565
        CHANNELS 3 Zrotation Xrotation Yrotation
        JOINT FootLeft
        {
          OFFSET 6.103038 -2.419977 -11.517635
          CHANNELS 3 Zrotation Xrotation Yrotation
          End Site
          {
            OFFSET 0 0 0
          }
        }
      }
    }
  }
  JOINT HipRight
  {
    OFFSET 6.397982 1.032328 0.273229
    CHANNELS 3 Zrotation Xrotation Yrotation
    JOINT KneeRight
    {
      OFFSET 26.791535 2.609779 -17.218701
      CHANNELS 3 Zrotation Xrotation Yrotation
      JOINT AnkleRight
      {
        OFFSET -5.076987 -32.570899 -10.820841
        CHANNELS 3 Zrotation Xrotation Yrotation
        JOINT FootRight
        {
          OFFSET 5.916693 -2.445356 -11.561188
          CHANNELS 3 Zrotation Xrotation Yrotation
          End Site
          {
            OFFSET 0 0 0
          }
        }
      }
    }
  }
}
MOTION
Frames: 14
Frame Time: 0.033333
-69.199258 33.175441 365.354194 -0.000000 0.000000 -30.591233 -0.000000 0.000000 30.591233 -0.000000 0.000000 0.000000 -0.000000 0.000000 0.000000 0.000000 0.000000 0.000000 -0.000000 0.000000 0.000000 -0.000000 0.000000 0.000000 -0.000000 0.000000 0.000000 -0.000000 0.000000 0.000000 0.000000 0.000000 0.000000 0.000000 0.000000 0.000000 -0.000000 0.000000 0.000000 -0.000000 0.000000 0.000000 -0.000000 0.000000 0.000000 -0.000000 0.000000 0.000000 0.000000 0.000000 0.000000 0.000000 0.000000 0.000000 -0.000000 0.000000 30.591233 -0.000000 0.000000 0.000000 -0.000000 0.000000 0.000000 0.000000 0.000000 0.000000 -0.000000 0.000000 30.591233 -0.000000 0.000000 0.000000 -0.000000 0.000000 0.000000 0.000000 0.000000 0.000000
-68.804846 33.257615 365.163313 0.470795 0.156576 -30.740179 -0.324619 -0.375216 30.738473 -0.000000 0.000000 0.000000 0.846266 0.777445 -0.122444 0.000000 0.000000 0.000000 -0.000000 0.000000 0.000000 -0.000000 0.000000 0.000000 2.477740 -0.571530 -3.356886 -2.507021 0.424971 3.378545 0.000000 0.000000 0.000000 0.000000 0.000000 0.000000 -0.000000 0.000000 0.000000 -0.000000 0.000000 0.000000 -0.317421 -0.404276 0.747566 4.223189 5.721413 -4.111036 0.000000 0.000000 0.000000 0.000000 0.000000 0.000000 -0.324619 -0.375216 30.738473 -0.000000 0.000000 0.000000 -0.000000 0.000000 0.000000 0.000000 0.000000 0.000000 -0.324619 -0.375216 30.738473 -0.000000 0.000000 0.000000 -0.000000 0.000000 0.000000 0.000000 0.000000 0.000000
-68.476513 33.322972 365.004257 0.860501 0.282302 -30.848475 -0.594049 -0.683574 30.842811 -0.000000 0.000000 0.000000 1.464177 1.349810 -0.220905 0.000000 0.000000 0.000000 -0.000000 0.000000 0.000000 -0.408959 -0.760731 -0.263712 5.385950 0.214463 -6.578421 -4.886667 -1.066977 6.209361 0.000000 0.000000 0.000000 0.000000 0.000000 0.000000 -0.468412 -0.863355 -0.221583 1.224559 0.967886 -0.659269 -1.252244 -0.916501 2.074507 7.201780 9.361128 -6.991804 0.000000 0.000000 0.000000 0.000000 0.000000 0.000000 -0.445038 -0.671009 32.005823 -0.133013 0.068314 -1.161172 -0.000000 0.000000 0.000000 0.000000 0.000000 0.000000 -0.594049 -0.683574 30.842811 -0.000000 0.000000 0.000000 -0.000000 0.000000 0.000000 0.000000 0.000000 0.000000
-68.214261 33.371513 364.877028 1.168852 0.377082 -30.916656 -0.120479 -0.442905 30.944650 -0.837966 -0.058561 -0.030578 1.862643 1.727155 -0.290287 0.000000 0.000000 0.000000 -0.000000 0.000000 0.000000 -0.588320 -1.094398 -0.383106 8.105781 1.060715 -10.009343 -6.581470 -2.550323 7.984669 0.000000 0.000000 0.000000 0.000000 0.000000 0.000000 -0.558429 -1.175209 -0.302353 1.528146 1.378477 -0.797187 -1.508503 -1.393901 2.437709 8.639233 11.222288 -8.365878 0.000000 0.000000 0.000000 0.000000 0.000000 0.000000 -0.607452 -0.899341 32.495872 -0.183326 0.087555 -1.586238 -0.000000 0.000000 0.000000 0.000000 0.000000 0.000000 -0.809140 -0.923979 30.906285 -0.000000 0.000000 0.000000 -0.000000 0.000000 0.000000 0.000000 0.000000 0.000000
-68.018088 33.403236 364.781625 1.395636 0.440845 -30.945280 -0.138480 -0.500427 30.978844 -0.197625 -0.051202 0.035075 1.226736 1.882246 -0.397929 0.000000 0.000000 0.000000 -0.821988 -0.030498 -0.071692 -0.745372 -1.387430 -0.490435 10.856087 2.268813 -13.517004 -7.772166 -4.485247 8.970961 0.000000 0.000000 0.000000 0.000000 0.000000 0.000000 -1.378433 -1.441010 -0.434659 1.610258 1.744441 -0.778386 -1.496710 -1.866248 2.302832 8.445713 11.532405 -8.129016 0.000000 0.000000 0.000000 0.000000 0.000000 0.000000 -0.731284 -1.055733 32.838228 -0.222567 0.096140 -1.902919 -0.000000 0.000000 0.000000 0.000000 0.000000 0.000000 -0.970463 -1.095637 30.930631 -0.000000 0.000000 0.000000 -0.000000 0.000000 0.000000 0.000000 0.000000 0.000000
-67.887996 33.418143 364.718047 1.540678 0.473535 -30.934896 -0.145505 -0.512447 30.972494 -0.213559 -0.038593 0.039905 1.079479 1.844122 -0.409537 0.000000 0.000000 0.000000 -0.939011 -0.068697 -0.081668 -0.876291 -1.633385 -0.583023 13.633923 3.743513 -17.074371 -8.479104 -6.760452 9.309227 0.000000 0.000000 0.000000 0.000000 0.000000 0.000000 -1.399248 -1.641437 -0.484653 1.465114 2.065085 -0.593051 -1.212385 -2.325839 1.654416 6.683070 10.335433 -6.300583 0.000000 0.000000 0.000000 0.000000 0.000000 0.000000 -0.817114 -1.140013 33.031558 -0.250570 0.093711 -2.108769 -0.000000 0.000000 0.000000 0.000000 0.000000 0.000000 -1.078323 -1.198022 30.917255 -0.000000 0.000000 0.000000 -0.000000 0.000000 0.000000 0.000000 0.000000 0.000000
-67.776021 33.438494 364.668687 1.661839 0.514917 -30.776519 -0.150704 -0.459026 30.817510 -0.228730 -0.030661 0.044736 0.892436 1.808809 -0.440225 0.000000 0.000000 0.000000 -1.069038 -0.165106 -0.092481 -1.291147 -2.075285 -0.532920 17.998674 6.969688 -22.428275 -9.442815 -12.847724 11.194893 0.000000 0.000000 0.000000 0.000000 0.000000 0.000000 -1.056896 -1.658219 -0.466354 0.908847 2.255876 -0.345863 -1.457583 -0.355330 1.789654 3.596356 6.565696 -0.380740 0.000000 0.000000 0.000000 0.000000 0.000000 0.000000 -0.804491 -1.501910 33.053882 0.435382 -0.207564 -2.356150 -0.646283 0.553276 0.069799 0.000000 0.000000 0.000000 -1.164614 -1.292548 30.755914 -0.000000 0.000000 0.000000 -0.000000 0.000000 0.000000 0.000000 0.000000 0.000000
-67.828731 33.447028 364.674394 1.562541 0.503067 -30.527679 -0.131355 -0.316178 30.567286 -0.207728 0.028663 0.043447 0.381084 1.007866 -0.301127 0.000000 0.000000 0.000000 -1.263051 -1.184906 0.167243 -1.279347 -1.375613 -0.749006 19.994098 8.137991 -24.878093 -8.076485 -16.193470 8.564425 0.000000 0.000000 0.000000 0.000000 0.000000 0.000000 -0.928082 -1.881525 -0.479103 0.410512 2.280018 0.088409 -1.736447 2.229771 2.416947 0.685474 -2.128869 0.094761 0.000000 0.000000 0.000000 0.000000 0.000000 0.000000 -0.759121 -1.398807 32.679634 -0.186167 0.323677 -2.162372 -0.000000 0.000000 0.000000 0.000000 0.000000 0.000000 -1.090660 -1.226862 30.509141 -0.000000 0.000000 0.000000 -0.000000 0.000000 0.000000 0.000000 0.000000 0.000000
-67.906101 33.392237 364.695417 1.460013 0.472015 -30.445616 -0.110657 -0.195190 30.484084 -0.181142 0.088142 0.042403 -1.085181 -0.446159 -0.092072 0.000000 0.000000 0.000000 -1.725998 -1.356172 0.379644 -0.404222 -1.249686 -1.410955 21.513169 9.254879 -27.007094 -7.650195 -17.715119 8.037168 0.000000 0.000000 0.000000 0.000000 0.000000 0.000000 -0.681414 -2.058257 -0.485381 -0.524360 2.802746 1.219320 2.302647 -6.391109 -5.731097 -5.862291 -3.612316 5.341858 0.000000 0.000000 0.000000 0.000000 0.000000 0.000000 -0.822386 -0.910184 32.426433 -0.293306 -0.093774 -1.993734 -0.000000 0.000000 0.000000 0.000000 0.000000 0.000000 -1.019715 -1.146607 30.429398 -0.000000 0.000000 0.000000 -0.000000 0.000000 0.000000 0.000000 0.000000 0.000000
-68.084053 33.284746 364.768259 1.264117 0.362368 -30.585220 -0.054800 -0.081597 30.622349 -0.140085 0.125655 0.041064 -1.774937 -1.118714 0.003014 0.000000 0.000000 0.000000 -1.776900 -1.302892 0.417783 0.352971 -0.909474 -1.839898 22.158124 7.353591 -28.455631 -7.539590 -11.340776 5.381849 0.000000 0.000000 0.000000 0.000000 0.000000 0.000000 0.072598 -1.983144 -0.444905 -2.188800 1.589082 1.768458 4.641754 -14.529691 -10.804566 -10.231955 -1.772842 10.987299 0.000000 0.000000 0.000000 0.000000 0.000000 0.000000 -0.935483 -0.034713 32.239556 -0.464367 -0.795257 -1.669363 -0.000000 0.000000 0.000000 0.000000 0.000000 0.000000 -0.903986 -0.955074 30.573688 -0.000000 0.000000 0.000000 -0.000000 0.000000 0.000000 0.000000 0.000000 0.000000
-68.318955 33.109257 364.888333 0.983708 0.091078 -30.797732 0.051147 -0.062795 30.833824 -0.082961 0.084878 0.041548 -3.318479 -2.364474 0.215143 0.000000 0.000000 0.000000 -1.539006 -0.903992 0.369608 -0.004897 -1.229446 -1.762772 24.374171 4.839906 -31.524315 -9.003538 -1.430182 3.932482 0.000000 0.000000 0.000000 0.000000 0.000000 0.000000 0.794515 -1.576627 -0.418276 -2.533290 3.072202 2.309972 4.139416 -22.519566 -12.394022 -12.336562 -0.129391 12.564125 0.000000 0.000000 0.000000 0.000000 0.000000 0.000000 -1.147632 1.276840 31.977864 -0.646922 -0.737228 -1.088372 -0.021882 -1.024961 -0.104354 0.000000 0.000000 0.000000 -0.798385 -0.581876 30.792896 -0.000000 0.000000 0.000000 -0.000000 0.000000 0.000000 0.000000 0.000000 0.000000
-68.526016 32.915644 365.045137 0.786498 -0.226597 -31.087978 0.126504 -0.087563 31.123408 -0.037525 0.059694 0.042754 -5.431958 -3.900570 0.402110 0.000000 0.000000 0.000000 -0.811650 0.308310 -0.073813 2.035709 -0.013028 -2.427994 22.413593 3.589269 -30.623485 -9.187514 2.970875 3.046836 0.000000 0.000000 0.000000 0.000000 0.000000 0.000000 1.372163 -1.369370 -0.464400 -2.518368 6.199106 3.328385 2.962546 -27.398275 -13.344445 -13.120095 -1.161719 11.930693 0.000000 0.000000 0.000000 0.000000 0.000000 0.000000 -1.412210 2.401794 31.788788 -1.153277 -0.834165 -0.537095 0.320311 -1.712121 -0.174830 0.000000 0.000000 0.000000 -0.795239 -0.376903 31.911006 0.091122 0.137441 -0.823070 -0.000000 0.000000 0.000000 0.000000 0.000000 0.000000
-68.704890 32.695761 365.199210 0.541049 -0.627277 -31.735117 0.189008 -0.124430 31.766500 -0.007058 0.047815 0.039610 -7.172478 -4.973935 0.519227 0.000000 0.000000 0.000000 0.290822 0.121807 -0.352010 3.633637 2.716310 -3.141679 22.931218 1.945423 -32.924001 -10.847343 10.291354 2.385319 0.000000 0.000000 0.000000 0.000000 0.000000 0.000000 2.181074 -0.952565 -0.482330 -2.310440 10.441694 4.422370 1.369573 -30.043043 -14.226338 -13.178751 -3.370643 12.766935 0.000000 0.000000 0.000000 0.000000 0.000000 0.000000 -1.585716 3.201891 32.018550 -1.612538 -0.700003 -0.062163 0.723098 -2.224775 -0.224167 0.000000 0.000000 0.000000 -0.983939 -0.398506 32.925775 0.514597 0.438028 -1.188201 -0.000000 0.000000 0.000000 0.000000 0.000000 0.000000
-68.815088 32.508921 365.274914 0.408606 -0.970779 -32.375956 0.185757 -0.198383 32.403842 0.000120 0.038379 0.035584 -8.691981 -5.806362 0.581029 0.000000 0.000000 0.000000 1.203012 0.021071 -0.586887 5.417152 5.355252 -3.930525 23.791328 -0.531015 -35.551187 -13.042989 19.689323 0.872574 0.000000 0.000000 0.000000 0.000000 0.000000 0.000000 2.956427 -0.620330 -0.512720 -2.387427 16.322023 6.467751 -0.342339 -30.585474 -15.982718 -11.574754 -4.375909 11.902557 0.000000 0.000000 0.000000 0.000000 0.000000 0.000000 -1.694148 3.398255 32.258805 -1.934764 -0.356360 0.371516 1.126455 -2.458949 -0.244219 0.000000 0.000000 0.000000 -1.339655 -0.761928 33.896432 0.086740 0.494075 -1.095643 1.060078 0.392855 -0.417189 0.000000 0.000000 0.000000
